<?xml version="1.0" encoding="UTF-8"?>
<svg width="50px" height="50px" viewBox="0 0 50 50" version="1.1" xmlns="http://www.w3.org/2000/svg" xmlns:xlink="http://www.w3.org/1999/xlink">
    <!-- Generator: Sketch 43 (38999) - http://www.bohemiancoding.com/sketch -->
    <title>Page 1</title>
    <desc>Created with Sketch.</desc>
    <defs></defs>
    <g id="Page-2" stroke="none" stroke-width="1" fill="none" fill-rule="evenodd">
        <g id="Desktop" transform="translate(-487.000000, -840.000000)" fill="#925757">
            <g id="Group-4" transform="translate(91.000000, 840.000000)">
                <path d="M421,0 C407.192615,0 396,11.1915849 396,25 C396,38.8084151 407.191585,50 421,50 C434.808415,50 446,38.8084151 446,25 C446,11.1915849 434.808415,0 421,0 Z M418.178872,12.5484217 C418.178872,10.9909956 419.442574,9.72729333 421,9.72729333 C422.557426,9.72729333 423.821128,10.9909956 423.821128,12.5484217 L423.821128,29.3744334 C423.821128,30.9318594 422.557426,32.1955617 421,32.1955617 C419.442574,32.1955617 418.178872,30.9318594 418.178872,29.3744334 L418.178872,12.5484217 Z M423.547391,40.0024726 C422.879337,40.6705267 421.945665,41.0608465 420.999897,41.0608465 C420.054129,41.0608465 419.124536,40.6704752 418.448385,40.0024726 C417.776313,39.3304006 417.394029,38.4007459 417.394029,37.4549782 C417.394029,36.5052131 417.776343,35.5755996 418.448385,34.9034658 C419.124485,34.2313937 420.058147,33.8491099 420.999897,33.8491099 C421.945634,33.8491099 422.875258,34.2314246 423.547391,34.9034658 C424.223492,35.5715198 424.605765,36.5051925 424.605765,37.4549782 C424.605765,38.400715 424.223451,39.3303387 423.547391,40.0024726 Z" id="Page-1"></path>
            </g>
        </g>
    </g>
</svg>